<?xml version="1.0" encoding="UTF-8" standalone="no"?>
<svg width="395.0mm" height="390.0mm" viewBox="0 0 395.0 390.0"
     xmlns="http://www.w3.org/2000/svg" version="1.1">
  <path d="M 17.5,0 L 107.5,0 M 207.5,0 L 297.5,0 M 15.0,47.5 L 17.5,47.5 M 107.5,47.5 L 110.0,47.5 M 205.0,47.5 L 207.5,47.5 M 297.5,47.5 L 300.0,47.5 M 15.0,332.5 L 17.5,332.5 M 107.5,332.5 L 110.0,332.5 M 205.0,332.5 L 207.5,332.5 M 297.5,332.5 L 300.0,332.5 M 17.5,380.0 L 107.5,380.0 M 207.5,380.0 L 297.5,380.0 M 112.5,-5.0 L 202.5,-5.0 M 302.5,-5.0 L 392.5,-5.0 M 110.0,42.5 L 112.5,42.5 M 202.5,42.5 L 205.0,42.5 M 300.0,42.5 L 302.5,42.5 M 392.5,42.5 L 395.0,42.5 M 110.0,337.5 L 112.5,337.5 M 202.5,337.5 L 205.0,337.5 M 300.0,337.5 L 302.5,337.5 M 392.5,337.5 L 395.0,337.5 M 112.5,385.0 L 202.5,385.0 M 302.5,385.0 L 392.5,385.0 M 0.0,51.83012701892219 L 0.0,328.1698729810778 M 107.5,0 L 107.5,47.5 M 107.5,332.5 L 107.5,380.0 M 17.5,0 L 17.5,47.5 M 17.5,332.5 L 17.5,380.0 M 110.0,42.5 L 110.0,47.5 M 110.0,332.5 L 110.0,337.5 M 202.5,-5.0 L 202.5,42.5 M 202.5,337.5 L 202.5,385.0 M 112.5,-5.0 L 112.5,42.5 M 112.5,337.5 L 112.5,385.0 M 205.0,42.5 L 205.0,47.5 M 205.0,332.5 L 205.0,337.5 M 297.5,0 L 297.5,47.5 M 297.5,332.5 L 297.5,380.0 M 207.5,0 L 207.5,47.5 M 207.5,332.5 L 207.5,380.0 M 300.0,42.5 L 300.0,47.5 M 300.0,332.5 L 300.0,337.5 M 392.5,-5.0 L 392.5,42.5 M 392.5,337.5 L 392.5,385.0 M 302.5,-5.0 L 302.5,42.5 M 302.5,337.5 L 302.5,385.0 M 395.0,42.5 L 395.0,337.5 M 0.0,51.83012701892219 L 15.0,47.5 M 0.0,328.1698729810778 L 15.0,332.5" fill="none" stroke="black" stroke-width="0.5"/>
  <line x1="17.5" y1="47.5" x2="107.5" y2="47.5" stroke="green" stroke-width="1.0" />
  <line x1="207.5" y1="47.5" x2="297.5" y2="47.5" stroke="green" stroke-width="1.0" />
  <line x1="17.5" y1="332.5" x2="107.5" y2="332.5" stroke="green" stroke-width="1.0" />
  <line x1="207.5" y1="332.5" x2="297.5" y2="332.5" stroke="green" stroke-width="1.0" />
  <line x1="112.5" y1="42.5" x2="202.5" y2="42.5" stroke="green" stroke-width="1.0" />
  <line x1="302.5" y1="42.5" x2="392.5" y2="42.5" stroke="green" stroke-width="1.0" />
  <line x1="112.5" y1="337.5" x2="202.5" y2="337.5" stroke="green" stroke-width="1.0" />
  <line x1="302.5" y1="337.5" x2="392.5" y2="337.5" stroke="green" stroke-width="1.0" />
  <line x1="15.0" y1="47.5" x2="15.0" y2="332.5" stroke="green" stroke-width="1.0" />
  <line x1="110.0" y1="47.5" x2="110.0" y2="332.5" stroke="green" stroke-width="1.0" />
  <line x1="205.0" y1="47.5" x2="205.0" y2="332.5" stroke="green" stroke-width="1.0" />
  <line x1="300.0" y1="47.5" x2="300.0" y2="332.5" stroke="green" stroke-width="1.0" />
</svg>