<?xml version="1.0" encoding="UTF-8" standalone="no"?>
<svg width="278.0mm" height="158.0mm" viewBox="0 0 278.0 158.0"
     xmlns="http://www.w3.org/2000/svg" version="1.1">
  <path d="M 21.0,0 L 71.0,0 M 150.0,0 L 200.0,0 M 20.0,26.0 L 21.0,26.0 M 71.0,26.0 L 72.0,26.0 M 149.0,26.0 L 150.0,26.0 M 200.0,26.0 L 201.0,26.0 M 20.0,128.0 L 21.0,128.0 M 71.0,128.0 L 72.0,128.0 M 149.0,128.0 L 150.0,128.0 M 200.0,128.0 L 201.0,128.0 M 21.0,154.0 L 71.0,154.0 M 150.0,154.0 L 200.0,154.0 M 73.0,-2.0 L 148.0,-2.0 M 202.0,-2.0 L 277.0,-2.0 M 72.0,24.0 L 73.0,24.0 M 148.0,24.0 L 149.0,24.0 M 201.0,24.0 L 202.0,24.0 M 277.0,24.0 L 278.0,24.0 M 72.0,130.0 L 73.0,130.0 M 148.0,130.0 L 149.0,130.0 M 201.0,130.0 L 202.0,130.0 M 277.0,130.0 L 278.0,130.0 M 73.0,156.0 L 148.0,156.0 M 202.0,156.0 L 277.0,156.0 M 0.0,31.773502691896258 L 0.0,122.22649730810375 M 71.0,0 L 71.0,26.0 M 71.0,128.0 L 71.0,154.0 M 21.0,0 L 21.0,26.0 M 21.0,128.0 L 21.0,154.0 M 72.0,24.0 L 72.0,26.0 M 72.0,128.0 L 72.0,130.0 M 148.0,-2.0 L 148.0,24.0 M 148.0,130.0 L 148.0,156.0 M 73.0,-2.0 L 73.0,24.0 M 73.0,130.0 L 73.0,156.0 M 149.0,24.0 L 149.0,26.0 M 149.0,128.0 L 149.0,130.0 M 200.0,0 L 200.0,26.0 M 200.0,128.0 L 200.0,154.0 M 150.0,0 L 150.0,26.0 M 150.0,128.0 L 150.0,154.0 M 201.0,24.0 L 201.0,26.0 M 201.0,128.0 L 201.0,130.0 M 277.0,-2.0 L 277.0,24.0 M 277.0,130.0 L 277.0,156.0 M 202.0,-2.0 L 202.0,24.0 M 202.0,130.0 L 202.0,156.0 M 278.0,24.0 L 278.0,130.0 M 0.0,31.773502691896258 L 20.0,26.0 M 0.0,122.22649730810375 L 20.0,128.0" fill="none" stroke="black" stroke-width="0.5"/>
  <line x1="21.0" y1="26.0" x2="71.0" y2="26.0" stroke="green" stroke-width="1.0" />
  <line x1="150.0" y1="26.0" x2="200.0" y2="26.0" stroke="green" stroke-width="1.0" />
  <line x1="21.0" y1="128.0" x2="71.0" y2="128.0" stroke="green" stroke-width="1.0" />
  <line x1="150.0" y1="128.0" x2="200.0" y2="128.0" stroke="green" stroke-width="1.0" />
  <line x1="73.0" y1="24.0" x2="148.0" y2="24.0" stroke="green" stroke-width="1.0" />
  <line x1="202.0" y1="24.0" x2="277.0" y2="24.0" stroke="green" stroke-width="1.0" />
  <line x1="73.0" y1="130.0" x2="148.0" y2="130.0" stroke="green" stroke-width="1.0" />
  <line x1="202.0" y1="130.0" x2="277.0" y2="130.0" stroke="green" stroke-width="1.0" />
  <line x1="20.0" y1="26.0" x2="20.0" y2="128.0" stroke="green" stroke-width="1.0" />
  <line x1="72.0" y1="26.0" x2="72.0" y2="128.0" stroke="green" stroke-width="1.0" />
  <line x1="149.0" y1="26.0" x2="149.0" y2="128.0" stroke="green" stroke-width="1.0" />
  <line x1="201.0" y1="26.0" x2="201.0" y2="128.0" stroke="green" stroke-width="1.0" />
</svg>